<?xml version="1.0" encoding="UTF-8" standalone="no"?>
<svg width="116px" height="129px" viewBox="0 0 116 129" version="1.1" xmlns="http://www.w3.org/2000/svg" xmlns:xlink="http://www.w3.org/1999/xlink">
    <!-- Generator: sketchtool 40.1 (33804) - http://www.bohemiancoding.com/sketch -->
    <title>C015A28D-981E-4350-9425-B73B91A5D699</title>
    <desc>Created with sketchtool.</desc>
    <defs></defs>
    <g id="Page-1" stroke="none" stroke-width="1" fill="none" fill-rule="evenodd">
        <g id="Desktop--Home-page" transform="translate(-459.000000, -2620.000000)">
            <g id="Backend-Icon" transform="translate(447.000000, 2620.000000)">
                <g id="Group-6" transform="translate(0.000000, 0.489604)">
                    <path d="M63.6944727,15.6402505 C36.8712,15.6402505 15.0486545,37.5345144 15.0486545,64.4466698 C15.0486545,91.3580955 36.8712,113.25163 63.6944727,113.25163 C72.0202909,113.25163 80.2348364,111.105691 87.4493818,107.047306 C102.802836,98.4110167 112.341018,82.0877288 112.341018,64.4466698 C112.341018,37.5345144 90.5184727,15.6402505 63.6944727,15.6402505 M63.6944727,115.160428 C35.8217455,115.160428 13.1461091,92.4102693 13.1461091,64.4466698 C13.1461091,36.4823405 35.8217455,13.7314525 63.6944727,13.7314525 C91.5672,13.7314525 114.243564,36.4823405 114.243564,64.4466698 C114.243564,82.7772602 104.333018,99.7382735 88.3802909,108.712397 C80.8821091,112.931308 72.3453818,115.160428 63.6944727,115.160428" id="Fill-1"></path>
                    <g id="Group-5">
                        <path d="M63.6944727,2.45115646 C29.6224727,2.45115646 1.90247273,30.2622565 1.90247273,64.446232 C1.90247273,98.6302075 29.6224727,126.441307 63.6944727,126.441307 C97.7672,126.441307 125.486473,98.6302075 125.486473,64.446232 C125.486473,30.2622565 97.7672,2.45115646 63.6944727,2.45115646 M63.6944727,128.350106 C28.5730182,128.350106 -7.27272727e-05,99.6823813 -7.27272727e-05,64.446232 C-7.27272727e-05,29.2100826 28.5730182,0.542358406 63.6944727,0.542358406 C98.8159273,0.542358406 127.389745,29.2100826 127.389745,64.446232 C127.389745,99.6823813 98.8159273,128.350106 63.6944727,128.350106" id="Fill-3"></path>
                    </g>
                </g>
                <path d="M86.2104727,70.2808351 C84.3755636,70.8682137 82.8999273,72.224657 82.1610182,74.0021157 C81.4235636,75.7781151 81.5042909,77.7839583 82.3850182,79.505233 C82.5290182,79.7868829 82.4977455,80.1327431 82.3035636,80.3837471 C81.0999273,81.9503333 79.7042909,83.344719 78.1573818,84.5289619 C77.9021091,84.7230522 77.5661091,84.751509 77.2817455,84.6048468 C75.5617455,83.7153878 73.5719273,83.6198019 71.8213818,84.3414385 C70.0737455,85.0652641 68.7275636,86.541372 68.1297455,88.3925267 C68.0330182,88.6931478 67.7682909,88.913506 67.4555636,88.9550968 C66.4999273,89.0798691 65.5304727,89.1426201 64.5733818,89.1426201 C63.5915636,89.1426201 62.5922909,89.0762208 61.6032,88.9448815 L61.6017455,88.9441518 C61.2890182,88.9011017 61.0257455,88.6792842 60.9312,88.3772038 C60.3472,86.5369941 58.9952,85.0565081 57.2228364,84.31663 C55.4781091,83.5884264 53.4272,83.6723377 51.7370182,84.5413661 C51.4562909,84.6858394 51.1130182,84.6537342 50.8613818,84.4603735 C49.2992,83.2535112 47.9093818,81.8540178 46.7297455,80.2998359 C46.5392,80.0495615 46.5093818,79.70662 46.6533818,79.4256998 C47.5413818,77.6956691 47.6366545,75.6978522 46.9159273,73.9444724 C46.1944727,72.1889035 44.7232,70.8390272 42.8788364,70.242163 C42.5799273,70.1465772 42.3602909,69.8802502 42.3188364,69.5664952 C42.0650182,67.627781 42.0672,65.6518539 42.3268364,63.6941685 C42.3690182,63.3796838 42.5908364,63.1148161 42.8926545,63.0185006 C44.7261091,62.4318517 46.2024727,61.0754084 46.9406545,59.2986794 C47.6788364,57.5219503 47.5973818,55.5161071 46.7173818,53.7948324 C46.5726545,53.5131825 46.6046545,53.168052 46.7988364,52.9163183 C48.0024727,51.3497321 49.3973818,49.9546167 50.9442909,48.7718332 C51.1937455,48.5813912 51.5384727,48.5514751 51.8206545,48.694489 C53.5428364,49.588326 55.5333818,49.6824525 57.2817455,48.9578973 C59.0286545,48.235531 60.3741091,46.7594231 60.9726545,44.9075387 C61.0701091,44.6069176 61.3341091,44.3865594 61.6461091,44.3449686 C63.5762909,44.0903163 65.5450182,44.093235 67.4984727,44.3544543 C67.8119273,44.3967747 68.0759273,44.6185922 68.1712,44.9206726 C68.7552,46.7623417 70.1064727,48.2435573 71.8788364,48.9834355 C73.6257455,49.7145577 75.6773818,49.6299168 77.3653818,48.7579696 C77.6453818,48.6142261 77.9893818,48.6448719 78.2410182,48.8396919 C79.8032,50.0465543 81.1930182,51.4467773 82.3719273,53.0002295 C82.5624727,53.2505039 82.5930182,53.5934454 82.4482909,53.8743656 C81.5610182,55.6043963 81.4650182,57.6022132 82.1864727,59.3555931 C82.9079273,61.1118916 84.3792,62.4610382 86.2235636,63.0579024 C86.5217455,63.1542179 86.7413818,63.4198152 86.7828364,63.7335703 C87.0373818,65.6722845 87.0352,67.6489412 86.7748364,69.605897 C86.7326545,69.9203817 86.5115636,70.1852493 86.2104727,70.2808351 M88.7406545,69.8700349 C89.0235636,67.7394194 89.0264727,65.5869139 88.7493818,63.4723509 C88.6075636,62.4019355 87.8555636,61.4956943 86.8330182,61.1644273 C85.5435636,60.7470602 84.5181091,59.8109027 84.0199273,58.5967437 C83.5210182,57.3847737 83.5908364,55.9954956 84.2119273,54.7864442 C84.7050182,53.8262079 84.6017455,52.6514507 83.9486545,51.7933672 C82.6650182,50.1027383 81.1515636,48.5784726 79.4497455,47.2628904 C78.5922909,46.6010862 77.4184727,46.4952851 76.4584727,46.9885372 C75.2832,47.5956167 73.8562909,47.6554491 72.6417455,47.146874 C71.4082909,46.6324617 70.4679273,45.6007184 70.0613818,44.3172415 C69.7333818,43.2854982 68.8315636,42.5259191 67.7617455,42.3821755 C65.6344727,42.0983367 63.4904727,42.0946884 61.3864727,42.3726899 C60.3195636,42.5142445 59.4162909,43.2687159 59.0853818,44.2946219 C58.6672,45.5890438 57.7333818,46.6185981 56.5246545,47.1184172 C55.3173818,47.6204252 53.9326545,47.5503776 52.7268364,46.9257862 C51.7675636,46.4325341 50.5952,46.5361462 49.7421091,47.1899242 C48.0577455,48.4770494 46.5392,49.9954779 45.2272,51.7021593 C44.5675636,52.5609725 44.4599273,53.739378 44.9522909,54.7032627 C45.5661091,55.9020987 45.6235636,57.2979438 45.1108364,58.533263 C44.5966545,59.7700416 43.5682909,60.7142253 42.2897455,61.1235662 C41.2621091,61.4519145 40.5050182,62.3566964 40.3617455,63.4300305 C40.0788364,65.5599164 40.0752,67.7124218 40.3530182,69.8277145 C40.4941091,70.8981299 41.2461091,71.8043712 42.2686545,72.1356381 C43.5588364,72.5537349 44.5842909,73.4891627 45.0824727,74.7033217 C45.5813818,75.9152918 45.5115636,77.3045698 44.8904727,78.5136212 C44.3973818,79.4738575 44.5006545,80.6486147 45.1530182,81.5066983 C46.4366545,83.1980568 47.9508364,84.7215929 49.6526545,86.037175 C50.5079273,86.6960606 51.6817455,86.8047803 52.6410182,86.3129876 C53.2868364,85.9802613 54.0097455,85.8117092 54.7304727,85.8117092 C55.3224727,85.8117092 55.9137455,85.9248069 56.4613818,86.1539211 C57.6941091,86.6683334 58.6344727,87.699347 59.0402909,88.9813646 C59.3682909,90.0131079 60.2715636,90.772687 61.3413818,90.9164306 C63.4693818,91.2002694 65.6046545,91.2024584 67.7130182,90.9281052 C68.7813818,90.7858209 69.6853818,90.0313495 70.0162909,89.0054435 C70.4344727,87.7110216 71.3675636,86.6814673 72.5770182,86.1816482 C73.7872,85.6832885 75.1726545,85.7526065 76.3755636,86.3750089 C77.3341091,86.8668017 78.5050182,86.7631895 79.3595636,86.1116006 C81.0453818,84.8215567 82.5646545,83.3038579 83.8744727,81.5979061 C84.5341091,80.7390929 84.6417455,79.5614171 84.1493818,78.5968028 C83.5370182,77.3986964 83.4788364,76.0028513 83.9915636,74.7668024 C84.5057455,73.5300239 85.5333818,72.5858401 86.8119273,72.1764992 C87.8402909,71.848151 88.5973818,70.943369 88.7406545,69.8700349" id="Fill-7" fill="#FFFFFF"></path>
                <path d="M64.4033455,76.3825679 C61.9597091,76.3825679 59.5742545,75.4208722 57.7982545,73.6383058 C54.1575273,69.9863432 54.1575273,64.0432392 57.7982545,60.3905469 C61.4382545,56.7385842 67.3618909,56.7385842 71.0018909,60.3905469 C73.3960727,62.792597 74.3073455,66.3154093 73.3800727,69.5857583 C73.2353455,70.0936036 72.7044364,70.3847391 72.2033455,70.2439142 C71.6971636,70.0994409 71.4033455,69.5704354 71.5473455,69.06259 C72.2855273,66.4591529 71.5597091,63.6543289 69.6549818,61.7426122 C66.7568,58.8356353 62.0433455,58.8356353 59.1451636,61.7426122 C56.2484364,64.649589 56.2484364,69.3792637 59.1451636,72.2862405 C61.0644364,74.2110912 63.8768,74.9334574 66.4848,74.172419 C66.9895273,74.0264865 67.5189818,74.3168923 67.6651636,74.8232783 C67.8120727,75.330394 67.5218909,75.8608589 67.0164364,76.0082508 C66.1553455,76.2599845 65.2753455,76.3825679 64.4033455,76.3825679" id="Fill-9" fill="#FFFFFF"></path>
                <path d="M95.1898182,25.2575719 C94.9287273,25.8580844 94.4916364,26.3586331 93.9454545,26.7066823 C105.132364,35.6705906 112.319273,49.4583001 112.319273,64.9067222 C112.319273,73.2329051 110.197091,81.4525573 106.181818,88.677679 C105.925091,89.1388259 106.089455,89.7210969 106.549091,89.9786678 C106.696,90.0603901 106.855273,90.0990622 107.012364,90.0990622 C107.346909,90.0990622 107.671273,89.9224838 107.845818,89.6087288 C112.018909,82.0997683 114.225455,73.5583348 114.225455,64.9067222 C114.225455,48.8804071 106.781818,34.5739073 95.1898182,25.2575719" id="Fill-11" fill="#FFFFFF"></path>
                <path d="M89.9890182,21.5783928 C82.2988364,16.8457995 73.2610182,14.1117527 63.5977455,14.1117527 C35.6813818,14.1117527 12.9701091,36.8983943 12.9701091,64.9065033 C12.9701091,70.0557341 13.7359273,75.137836 15.2457455,80.0105246 C15.4028364,80.5147216 15.9381091,80.7963715 16.4384727,80.639494 C16.9410182,80.4826164 17.2224727,79.9470439 17.0661091,79.4428469 C15.6122909,74.7540333 14.8755636,69.8631031 14.8755636,64.9065033 C14.8755636,37.9520275 36.7322909,16.0241991 63.5977455,16.0241991 C72.9162909,16.0241991 81.6290182,18.6663083 89.0392,23.2376462 C89.1846545,22.5889759 89.5221091,22.0176499 89.9890182,21.5783928" id="Fill-13" fill="#FFFFFF"></path>
                <path d="M92.2088727,21.645084 C90.9397818,21.645084 89.9077818,22.6812053 89.9077818,23.9537373 C89.9077818,25.226999 90.9397818,26.2631203 92.2088727,26.2631203 C93.4779636,26.2631203 94.5099636,25.226999 94.5099636,23.9537373 C94.5099636,22.6812053 93.4779636,21.645084 92.2088727,21.645084 M92.2088727,28.174837 C89.8888727,28.174837 88.0016,26.2813618 88.0016,23.9537373 C88.0016,21.6261128 89.8888727,19.7333673 92.2088727,19.7333673 C94.5288727,19.7333673 96.4161455,21.6261128 96.4161455,23.9537373 C96.4161455,26.2813618 94.5288727,28.174837 92.2088727,28.174837" id="Fill-15" fill="#FFFFFF"></path>
                <path d="M48.6387636,4.22131856 C48.6387636,4.3738181 48.6140364,4.51975067 48.5936727,4.66714257 C53.4693091,3.44860559 58.5296727,2.8137989 63.6969455,2.8137989 C97.8220364,2.8137989 125.584945,30.6686787 125.584945,64.9066492 C125.584945,75.9785535 122.667855,86.3740603 117.584218,95.384667 C118.215491,95.5809463 118.760218,95.9596414 119.161673,96.4660274 C124.451855,87.145314 127.4904,76.3784088 127.4904,64.9066492 C127.4904,29.6143159 98.8736727,0.902082198 63.6969455,0.902082198 C58.4264,0.902082198 53.2649455,1.54564484 48.2882182,2.77512677 C48.5056727,3.21292449 48.6387636,3.69960962 48.6387636,4.22131856" id="Fill-17" fill="#FFFFFF"></path>
                <path d="M114.231273,100.683771 C103.013091,116.586773 84.5498182,126.998332 63.6974545,126.998332 C63.1709091,126.998332 62.744,127.426644 62.744,127.95419 C62.744,128.482466 63.1709091,128.910049 63.6974545,128.910049 C85.248,128.910049 104.322909,118.122713 115.877091,101.6586 C115.231273,101.505371 114.664727,101.159511 114.231273,100.683771" id="Fill-19" fill="#FFFFFF"></path>
                <path d="M42.1706182,4.62102788 C33.0680727,7.88262088 24.7611636,13.225942 17.8200727,20.4313628 C17.4542545,20.8107875 17.4644364,21.4164077 17.8433455,21.7834281 C18.2208,22.1489892 18.8244364,22.1395036 19.1909818,21.7600789 C25.9597091,14.7326958 34.0688,9.53311827 42.9553455,6.37367808 C42.5320727,5.89355991 42.2528,5.29085839 42.1706182,4.62102788" id="Fill-21" fill="#FFFFFF"></path>
                <path d="M116.625964,96.1802185 C115.356873,96.1802185 114.324873,97.2163397 114.324873,98.4896014 C114.324873,99.7621335 115.356873,100.798255 116.625964,100.798255 C117.895055,100.798255 118.927055,99.7621335 118.927055,98.4896014 C118.927055,97.2163397 117.895055,96.1802185 116.625964,96.1802185 M116.625964,102.709971 C114.305964,102.709971 112.418691,100.817226 112.418691,98.4896014 C112.418691,96.1619769 114.305964,94.2685018 116.625964,94.2685018 C118.945964,94.2685018 120.833236,96.1619769 120.833236,98.4896014 C120.833236,100.817226 118.945964,102.709971 116.625964,102.709971" id="Fill-23" fill="#FFFFFF"></path>
                <path d="M45.3848,1.91230043 C44.1157091,1.91230043 43.0829818,2.9484217 43.0829818,4.22168339 C43.0829818,5.49421543 44.1157091,6.53033669 45.3848,6.53033669 C46.6538909,6.53033669 47.6858909,5.49421543 47.6858909,4.22168339 C47.6858909,2.9484217 46.6538909,1.91230043 45.3848,1.91230043 M45.3848,8.4420534 C43.0648,8.4420534 41.1775273,6.54930793 41.1775273,4.22168339 C41.1775273,1.89405886 43.0648,0.000583730291 45.3848,0.000583730291 C47.7048,0.000583730291 49.5920727,1.89405886 49.5920727,4.22168339 C49.5920727,6.54930793 47.7048,8.4420534 45.3848,8.4420534" id="Fill-25" fill="#FFFFFF"></path>
            </g>
        </g>
    </g>
</svg>