

<svg xmlns="http://www.w3.org/2000/svg" width="112" height="130" viewBox="0 -10 132 150"><style>.a{fill:#fffff;}</style><path d="M93.5 84.6C92.3 84.6 91.2 85.7 91.2 86.9 91.2 88.2 92.3 89.2 93.5 89.2 94.8 89.2 95.8 88.2 95.8 86.9 95.8 85.7 94.8 84.6 93.5 84.6M93.5 91.1C91.2 91.1 89.3 89.2 89.3 86.9 89.3 84.6 91.2 82.7 93.5 82.7 95.8 82.7 97.7 84.6 97.7 86.9 97.7 89.2 95.8 91.1 93.5 91.1" class="a"/><path d="M49.9 123.4C48.6 123.4 47.6 124.4 47.6 125.7 47.6 127 48.6 128 49.9 128 51.2 128 52.2 127 52.2 125.7 52.2 124.4 51.2 123.4 49.9 123.4M49.9 129.9C47.6 129.9 45.7 128 45.7 125.7 45.7 123.4 47.6 121.5 49.9 121.5 52.2 121.5 54.1 123.4 54.1 125.7 54.1 128 52.2 129.9 49.9 129.9" class="a"/><path d="M94.5 16.1C93.3 16.1 92.3 17.1 92.3 18.4 92.3 19.7 93.3 20.7 94.5 20.7 95.8 20.7 96.8 19.7 96.8 18.4 96.8 17.1 95.8 16.1 94.5 16.1M94.5 22.6C92.2 22.6 90.4 20.7 90.4 18.4 90.4 16.1 92.2 14.2 94.5 14.2 96.8 14.2 98.7 16.1 98.7 18.4 98.7 20.7 96.8 22.6 94.5 22.6" class="a"/><path d="M23.1 60.9L30.2 82.2C30.9 84.6 33.5 86.5 36 86.5L64.4 86.5C66.9 86.5 69.5 84.6 70.3 82.2L77.3 60.9C77.7 59.7 77.6 58.4 76.9 57.5 76.3 56.6 75.2 56 73.8 56L59.7 56C59.1 56 58.7 56.5 58.7 57 58.7 57.5 59.1 57.9 59.7 57.9L73.8 57.9C74.6 57.9 75.1 58.2 75.4 58.6 75.7 59 75.7 59.6 75.5 60.3L68.5 81.6C67.9 83.2 66.1 84.6 64.4 84.6L36 84.6C34.3 84.6 32.5 83.2 31.9 81.6L24.9 60.3C24.7 59.6 24.7 59.1 25 58.6 25.3 58.2 25.9 57.9 26.6 57.9L40.8 57.9C41.3 57.9 41.7 57.5 41.7 57 41.7 56.5 41.3 56 40.8 56L26.6 56C25.3 56 24.2 56.6 23.5 57.5 22.8 58.4 22.7 59.7 23.1 60.9" class="a"/><path d="M49.9 52.7C49.4 52.7 49 52.3 49 51.8L49 39.4C49 38.9 49.4 38.5 49.9 38.5 50.4 38.5 50.9 38.9 50.9 39.4L50.9 51.8C50.9 52.3 50.4 52.7 49.9 52.7" class="a"/><path d="M97.2 20.3C96.8 20.8 96.3 21.2 95.6 21.5 105.6 32.5 111.6 47.2 111.6 63 111.6 96.1 85.5 123.2 53 124.7 53.1 125 53.1 125.3 53.1 125.7 53.1 126 53.1 126.3 53 126.6 86.6 125.1 113.5 97.1 113.5 63 113.5 46.8 107.4 31.7 97.2 20.3" class="a"/><path d="M62.5 2.4C73.6 4.7 83.6 10 91.5 17.3 91.8 16.7 92.2 16.2 92.7 15.8 84.5 8.3 74.3 2.9 62.9 0.5 62.3 0.4 61.9 0.7 61.7 1.3 61.6 1.8 62 2.3 62.5 2.4" class="a"/><path d="M46.7 125.7C46.7 125.3 46.8 125 46.9 124.7 30.6 123.8 15.3 116.4 4.4 104.1 4 103.7 3.5 103.7 3.1 104 2.7 104.4 2.6 105 3 105.4 14.2 118 30.1 125.7 46.8 126.6 46.7 126.3 46.7 126 46.7 125.7" class="a"/><path d="M98.5 63C98.5 70.3 96.9 77.3 93.9 83.7 94.5 83.8 95.1 84.1 95.6 84.5 98.7 77.8 100.4 70.5 100.4 63 100.4 35.1 77.9 12.4 50.2 12.4 44.4 12.4 38.7 13.4 33.2 15.4 32.7 15.5 32.5 16.1 32.7 16.6 32.8 17.1 33.4 17.3 33.9 17.1 39.1 15.3 44.6 14.3 50.2 14.3 76.9 14.3 98.5 36.1 98.5 63" class="a"/><path d="M91 89C86.8 95.7 80.9 101.4 73.8 105.4 73.4 105.7 73.2 106.3 73.4 106.7 73.6 107 73.9 107.2 74.3 107.2 74.4 107.2 74.6 107.2 74.7 107.1 82.1 102.9 88.2 97 92.6 90 92 89.8 91.4 89.5 91 89" class="a"/></svg>
