<?xml version="1.0" encoding="UTF-8" standalone="no"?>
<svg width="112px" height="130px" viewBox="0 0 112 130" version="1.1" xmlns="http://www.w3.org/2000/svg" xmlns:xlink="http://www.w3.org/1999/xlink">
    <!-- Generator: sketchtool 40.1 (33804) - http://www.bohemiancoding.com/sketch -->
    <title>9E80B618-B83F-47EA-8F72-5C1D1B84853B</title>
    <desc>Created with sketchtool.</desc>
    <defs></defs>
    <g id="Page-1" stroke="none" stroke-width="1" fill="none" fill-rule="evenodd">
        <g id="Desktop--Home-page" transform="translate(-463.000000, -1964.000000)">
            <g id="Ecommerce-Icon" transform="translate(461.000000, 1964.000000)">
                <g id="Group-6" transform="translate(0.000000, 12.252682)">
                    <path d="M50.203219,2.04848045 C23.5921557,2.04848045 1.94225696,23.8405475 1.94225696,50.6270838 C1.94225696,77.4128939 23.5921557,99.2042346 50.203219,99.2042346 C58.4631684,99.2042346 66.6127253,97.0683128 73.7701937,93.0288715 C89.002181,84.4328939 98.4649025,68.1857989 98.4649025,50.6270838 C98.4649025,23.8405475 76.8150038,2.04848045 50.203219,2.04848045 M50.203219,101.104123 C22.5510038,101.104123 0.0547632911,78.4601564 0.0547632911,50.6270838 C0.0547632911,22.7932849 22.5510038,0.148592179 50.203219,0.148592179 C77.8554342,0.148592179 100.352396,22.7932849 100.352396,50.6270838 C100.352396,68.8721117 90.520257,85.7539553 74.693738,94.6861899 C67.2548772,98.8854078 58.7856873,101.104123 50.203219,101.104123" id="Fill-1"></path>
                </g>
                <path d="M23.0935861,60.9121899 L30.1514848,82.2278324 C30.9437127,84.6208492 33.5217,86.4945922 36.0210418,86.4945922 L64.3868392,86.4945922 C66.8854595,86.4945922 69.4641684,84.6201229 70.2571177,82.2278324 L77.3135734,60.9121899 C77.7262823,59.6652067 77.584143,58.419676 76.9225101,57.4951508 C76.2529405,56.5597318 75.1569532,56.0448156 73.8380165,56.0448156 L59.6580038,56.0448156 C59.1363456,56.0448156 58.7128139,56.4711285 58.7128139,56.9962123 C58.7128139,57.5212961 59.1363456,57.9476089 59.6580038,57.9476089 L73.8380165,57.9476089 C74.5537633,57.9476089 75.0754215,58.1698436 75.3900038,58.6092291 C75.7045861,59.0493408 75.7493203,59.6216313 75.5198772,60.3108492 L68.4627,81.6272179 C67.9309405,83.2336983 66.0636494,84.5910726 64.3868392,84.5910726 L36.0210418,84.5910726 C34.3442316,84.5910726 32.477662,83.2336983 31.9459025,81.6272179 L24.8880038,60.3108492 C24.6592823,59.6216313 24.7025734,59.050067 25.0171557,58.6106816 C25.3324595,58.1705698 25.8577253,57.9476089 26.5785228,57.9476089 L40.7513203,57.9476089 C41.2729785,57.9476089 41.6965101,57.5212961 41.6965101,56.9962123 C41.6965101,56.4711285 41.2729785,56.0448156 40.7513203,56.0448156 L26.5785228,56.0448156 C25.2538139,56.0448156 24.154219,56.5604581 23.4839278,57.4973296 C22.8230165,58.419676 22.6808772,59.6652067 23.0935861,60.9121899" id="Fill-7" fill="#FFFFFF"></path>
                <path d="M49.9089114,54.1563296 C48.4954557,54.1563296 47.3460759,55.3139832 47.3460759,56.7359944 C47.3460759,58.1580056 48.4954557,59.3156592 49.9089114,59.3156592 C51.3223671,59.3156592 52.4717468,58.1580056 52.4717468,56.7359944 C52.4717468,55.3139832 51.3223671,54.1563296 49.9089114,54.1563296 M49.9089114,61.2184525 C47.4535823,61.2184525 45.4556962,59.2074469 45.4556962,56.7359944 C45.4556962,54.2638156 47.4535823,52.2535363 49.9089114,52.2535363 C52.3642405,52.2535363 54.3621266,54.2638156 54.3621266,56.7359944 C54.3621266,59.2074469 52.3642405,61.2184525 49.9089114,61.2184525" id="Fill-9" fill="#FFFFFF"></path>
                <path d="M49.9089114,52.7280726 C49.3865316,52.7280726 48.9637215,52.3017598 48.9637215,51.776676 L48.9637215,39.4063408 C48.9637215,38.881257 49.3865316,38.4549441 49.9089114,38.4549441 C50.4312911,38.4549441 50.8541013,38.881257 50.8541013,39.4063408 L50.8541013,51.776676 C50.8541013,52.3017598 50.4312911,52.7280726 49.9089114,52.7280726" id="Fill-11" fill="#FFFFFF"></path>
                <path d="M98.5410949,62.950648 C98.5410949,70.250257 96.8866519,77.3131061 93.8858544,83.7063464 C94.5453228,83.7840559 95.1391329,84.055676 95.6153354,84.4718212 C98.7200316,77.841095 100.431475,70.5182458 100.431475,62.950648 C100.431475,35.0732737 77.8998797,12.3922682 50.2036519,12.3922682 C44.3745,12.3922682 38.6615127,13.3886927 33.2227025,15.3553966 C32.7313481,15.5326034 32.4752089,16.0780223 32.651981,16.5718771 C32.8280316,17.0671844 33.3713354,17.3242793 33.8612468,17.1456201 C39.0944241,15.2544469 44.5931203,14.2957877 50.2036519,14.2957877 C76.8565633,14.2957877 98.5410949,36.1219888 98.5410949,62.950648" id="Fill-13" fill="#FFFFFF"></path>
                <path d="M91.0155076,88.955514 C86.7874063,95.6813799 80.9402165,101.394844 73.8080013,105.41976 C73.3534443,105.676855 73.190381,106.256408 73.4465203,106.715402 C73.6196848,107.02624 73.9400392,107.201268 74.271938,107.201268 C74.4277861,107.201268 74.5865203,107.16205 74.7329886,107.079257 C82.1278367,102.906184 88.1936468,96.9850112 92.5848114,90.0151229 C91.9585329,89.8255698 91.4173937,89.4544525 91.0155076,88.955514" id="Fill-15" fill="#FFFFFF"></path>
                <path d="M93.5116025,84.6196872 C92.2525519,84.6196872 91.2287165,85.6509721 91.2287165,86.9182905 C91.2287165,88.1848827 92.2525519,89.2161676 93.5116025,89.2161676 C94.7706532,89.2161676 95.7944886,88.1848827 95.7944886,86.9182905 C95.7944886,85.6509721 94.7706532,84.6196872 93.5116025,84.6196872 M93.5116025,91.1189609 C91.209957,91.1189609 89.3376152,89.2350503 89.3376152,86.9182905 C89.3376152,84.6015307 91.209957,82.7168939 93.5116025,82.7168939 C95.8132481,82.7168939 97.6855899,84.6015307 97.6855899,86.9182905 C97.6855899,89.2350503 95.8132481,91.1189609 93.5116025,91.1189609" id="Fill-17" fill="#FFFFFF"></path>
                <path d="M97.1632823,20.3084693 C96.7880924,20.8328268 96.2621051,21.2337207 95.6480924,21.4588603 C105.612991,32.5408156 111.603763,47.1908715 111.603763,62.950648 C111.603763,96.0984693 85.5410544,123.227073 52.9587,124.683218 C53.0654848,125.006402 53.1376367,125.345564 53.1376367,125.705061 C53.1376367,126.012268 53.0813582,126.303497 53.0027127,126.585285 C86.606738,125.105173 113.494865,97.1333855 113.494865,62.950648 C113.494865,46.7667374 107.366282,31.716514 97.1632823,20.3084693" id="Fill-19" fill="#FFFFFF"></path>
                <path d="M62.4853481,2.38350279 C73.6205506,4.65886592 83.5522595,9.95255307 91.5286519,17.2964637 C91.7544873,16.6805978 92.1542089,16.1526089 92.6758671,15.7771341 C84.4750823,8.26618436 74.2829051,2.85193855 62.861981,0.51847486 C62.3439304,0.41026257 61.8511329,0.74724581 61.7465127,1.26216201 C61.6433354,1.77707821 61.9737911,2.27892179 62.4853481,2.38350279" id="Fill-21" fill="#FFFFFF"></path>
                <path d="M46.6804747,125.705134 C46.6804747,125.337648 46.7547911,124.989771 46.8666266,124.66005 C30.6259557,123.76748 15.3001709,116.390888 4.39946203,104.109883 C4.04952532,103.716978 3.45282911,103.68357 3.0646519,104.033626 C2.67503165,104.383682 2.64184177,104.985749 2.98889241,105.377201 C14.2344873,118.048207 30.0509051,125.655022 46.8089051,126.564296 C46.7338671,126.289045 46.6804747,126.004352 46.6804747,125.705134" id="Fill-23" fill="#FFFFFF"></path>
                <path d="M49.9089114,123.407184 C48.6498608,123.407184 47.6260253,124.438469 47.6260253,125.705061 C47.6260253,126.97238 48.6498608,128.002939 49.9089114,128.002939 C51.167962,128.002939 52.1917975,126.97238 52.1917975,125.705061 C52.1917975,124.438469 51.167962,123.407184 49.9089114,123.407184 M49.9089114,129.906458 C47.6072658,129.906458 45.7349241,128.021821 45.7349241,125.705061 C45.7349241,123.388302 47.6072658,121.504391 49.9089114,121.504391 C52.210557,121.504391 54.0828987,123.388302 54.0828987,125.705061 C54.0828987,128.021821 52.210557,129.906458 49.9089114,129.906458" id="Fill-25" fill="#FFFFFF"></path>
                <path d="M94.5483532,16.1177486 C93.2893025,16.1177486 92.2654671,17.1490335 92.2654671,18.4156257 C92.2654671,19.6829441 93.2893025,20.7135028 94.5483532,20.7135028 C95.8074038,20.7135028 96.8312392,19.6829441 96.8312392,18.4156257 C96.8312392,17.1490335 95.8074038,16.1177486 94.5483532,16.1177486 M94.5483532,22.6170223 C92.2467076,22.6170223 90.3743658,20.7323855 90.3743658,18.4156257 C90.3743658,16.0988659 92.2467076,14.2149553 94.5483532,14.2149553 C96.8499987,14.2149553 98.7223405,16.0988659 98.7223405,18.4156257 C98.7223405,20.7323855 96.8499987,22.6170223 94.5483532,22.6170223" id="Fill-28" fill="#FFFFFF"></path>
            </g>
        </g>
    </g>
</svg>