<?xml version="1.0" encoding="UTF-8" standalone="no"?>
<svg   id="play" width="120px" height="120px" viewBox="0 0 120 120" version="1.1" xmlns="http://www.w3.org/2000/svg" xmlns:xlink="http://www.w3.org/1999/xlink">
    <!-- Generator: sketchtool 40.1 (33804) - http://www.bohemiancoding.com/sketch -->
    <title>F6F33692-0C35-4235-83E2-CD1C3C210B4B</title>
    <desc>Created with sketchtool.</desc>
    <defs></defs>
    <g id="Page-1" stroke="none" stroke-width="1" fill="none" fill-rule="evenodd">
        <g id="Desktop--Home-page" transform="translate(-450.000000, -681.000000)" fill="#FFFFFF">
            <g id="Module-2" transform="translate(-103.000000, 680.000000)">
                <g id="Entertainment-Icon" transform="translate(553.000000, 0.000000)">
                    <g id="Group-10" transform="translate(120, 120)">

                        <text x="-450.000000" y="-681.000000">combined translate of 100,100 and rotate around 200,200</text>

                        <path  id="play-line-inner-00"  d="M38.2765455,15.5134472 C37.9552727,15.5134472 37.6431591,15.3441139 37.4747727,15.0435472 C37.2260682,14.6004583 37.3838864,14.0395417 37.8263409,13.7911861 C45.0676591,9.725775 53.3087273,7.57665278 61.6597045,7.57665278 C63.3238409,7.57665278 65.0020682,7.662025 66.6478864,7.82994722 C67.1523409,7.88074722 67.5201136,8.33230278 67.4686818,8.83748056 C67.41725,9.34265833 66.9628182,9.71730833 66.4625909,9.65945278 C64.8780682,9.49788056 63.2618409,9.41674167 61.6597045,9.41674167 C53.6229545,9.41674167 45.6925909,11.4840194 38.7253409,15.3956194 C38.5830227,15.4760528 38.4287273,15.5134472 38.2765455,15.5134472" id="Fill-7"></path>



                        <path id ="play-line-outer-00" d="M10.2325364,26.0353972 C16.0520818,16.1555028 24.7327864,7.99434167 35.5665818,2.70831944 C36.0224227,2.48606944 36.2119455,1.93573611 35.9900136,1.47924167 C35.7666727,1.02133611 35.2171273,0.831541667 34.7619909,1.05520278 C23.5597182,6.51973056 14.5894455,14.9687583 8.59094545,25.1957861 C9.22362727,25.3072639 9.79149091,25.6043028 10.2325364,26.0353972" id="Fill-9"></path>

                        <path id ="play-line-outer-01" d="M65.5173727,116.888728 C65.5173727,116.595217 65.5702136,116.316522 65.6456,116.047 C64.3245773,116.133078 62.9972136,116.192344 61.6592818,116.192344 C28.7640545,116.192344 2.00189545,89.3918167 2.00189545,56.4494278 C2.00189545,47.5686 3.91825909,39.0553667 7.45085,31.3634 C6.82169091,31.24275 6.25875909,30.9365389 5.82405455,30.4998 C2.15619091,38.4521167 0.165145455,47.2595667 0.165145455,56.4494278 C0.165145455,90.4064056 27.7516227,118.031728 61.6592818,118.031728 C63.0134182,118.031728 64.3569864,117.973167 65.6942136,117.887089 C65.5885318,117.571706 65.5173727,117.240094 65.5173727,116.888728" id="Fill-11"></path>


                        <path  id="play-line-inner-01" d="M16.517575,69.3863533 C15.3339386,65.2560311 14.6935068,60.9147478 14.6935068,56.4492867 C14.6935068,39.4496311 23.9019159,23.7185644 38.7248477,15.3958311 C39.1673023,15.1474756 39.3251205,14.5865589 39.0764159,14.14347 C38.829825,13.7017922 38.2704159,13.5423367 37.8265523,13.7913978 C22.4244841,22.4386867 12.8567568,38.7849978 12.8567568,56.4492867 C12.8567568,61.18427 13.5500295,65.7851978 14.8287795,70.1554089 C15.2902568,69.7412478 15.8715068,69.4681978 16.517575,69.3863533" id="Fill-17"></path>

                        <path id ="play-line-inner-03" d="M52.5923455,102.606872 C37.0853,99.5694556 24.5901864,88.9931778 18.5804136,75.1395944 C18.0956864,75.4451 17.5271182,75.62925 16.91205,75.62925 C16.8683682,75.62925 16.8275045,75.6179611 16.7838227,75.61655 C22.9859364,90.1375889 36.0305955,101.238094 52.2400727,104.412389 C52.2992545,104.423678 52.3584364,104.429322 52.4169136,104.429322 C52.8473909,104.429322 53.2320727,104.125228 53.3173227,103.686372 C53.41455,103.187544 53.0904591,102.704239 52.5923455,102.606872" id="Fill-15"></path>

                        <path id="play-line-inner-04" d="M105.986745,97.8052139 C105.621086,97.4538472 105.039132,97.4658417 104.688268,97.8313194 C95.6172455,107.287881 84.0401545,113.338019 71.3984955,115.396125 C71.6408591,115.842036 71.7909273,116.345097 71.7909273,116.888375 C71.7909273,116.995619 71.7697909,117.096514 71.7592227,117.200231 C84.7672455,115.069453 96.6775864,108.837986 106.012814,99.1055528 C106.364382,98.7393694 106.352405,98.1572861 105.986745,97.8052139" id="Fill-23"></path>


                        <path id ="spot-play-01" d="M8.04569773,26.0608678 C6.82190227,26.0608678 5.82708409,27.0578178 5.82708409,28.2819567 C5.82708409,29.5068011 6.82190227,30.5037511 8.04569773,30.5037511 C9.26878864,30.5037511 10.2636068,29.5068011 10.2636068,28.2819567 C10.2636068,27.0578178 9.26878864,26.0608678 8.04569773,26.0608678 M8.04569773,32.3431344 C5.80947045,32.3431344 3.99033409,30.52139 3.99033409,28.2819567 C3.99033409,26.0432289 5.80947045,24.2214844 8.04569773,24.2214844 C10.281925,24.2214844 12.1010614,26.0432289 12.1010614,28.2819567 C12.1010614,30.52139 10.281925,32.3431344 8.04569773,32.3431344" id="Fill-13"></path>


                        <path id="spot-play-02" d="M16.9119091,70.2662517 C15.6888182,70.2662517 14.694,71.2632017 14.694,72.4880461 C14.694,73.7128906 15.6888182,74.7098406 16.9119091,74.7098406 C18.1357045,74.7098406 19.1305227,73.7128906 19.1305227,72.4880461 C19.1305227,71.2632017 18.1357045,70.2662517 16.9119091,70.2662517 M16.9119091,76.5492239 C14.6756818,76.5492239 12.8565455,74.7274794 12.8565455,72.4880461 C12.8565455,70.2486128 14.6756818,68.4268683 16.9119091,68.4268683 C19.1481364,68.4268683 20.9672727,70.2486128 20.9672727,72.4880461 C20.9672727,74.7274794 19.1481364,76.5492239 16.9119091,76.5492239" id="Fill-19"></path>

                        <g id="Group-27" transform="translate(64.113636, 112.483239)">
                            <path  id="spot-play-03" d="M4.54044318,2.183765 C3.31735227,2.183765 2.32253409,3.180715 2.32253409,4.40555944 C2.32253409,5.63040389 3.31735227,6.62735389 4.54044318,6.62735389 C5.76353409,6.62735389 6.75835227,5.63040389 6.75835227,4.40555944 C6.75835227,3.180715 5.76353409,2.183765 4.54044318,2.183765 M4.54044318,8.46673722 C2.30421591,8.46673722 0.485079545,6.64499278 0.485079545,4.40555944 C0.485079545,2.16612611 2.30421591,0.344381667 4.54044318,0.344381667 C6.77667045,0.344381667 8.59580682,2.16612611 8.59580682,4.40555944 C8.59580682,6.64499278 6.77667045,8.46673722 4.54044318,8.46673722" id="Fill-25"></path>
                        </g>

                        <path id="play-main" d="M53.2166432,79.5754222 C53.0630523,79.5754222 52.9101659,79.5373222 52.7713705,79.4597111 C52.4789841,79.2981389 52.2979159,78.9898111 52.2979159,78.6553778 L52.2979159,38.8260611 C52.2979159,38.4916278 52.4789841,38.1840056 52.7713705,38.0217278 C53.0616432,37.85945 53.4195523,37.8679167 53.7034841,38.0457167 L85.5306205,57.9607278 C85.7990523,58.12865 85.9625068,58.4242778 85.9625068,58.7410722 C85.9625068,59.0578667 85.7990523,59.3534944 85.5306205,59.5214167 L63.7756659,73.1337 C63.3473023,73.4039278 62.7794386,73.2719889 62.5103023,72.8408944 C62.2418705,72.4098 62.3722114,71.8425333 62.8026886,71.5730111 L83.3105977,58.7410722 L54.1353705,40.4855278 L54.1353705,76.9959111 L59.0432341,73.9253333 C59.4737114,73.6565167 60.0401659,73.78775 60.3085977,74.2181389 C60.5770295,74.6492333 60.4459841,75.2157944 60.0162114,75.4853167 L53.7034841,79.4357222 C53.554825,79.5288556 53.3857341,79.5754222 53.2166432,79.5754222" id="Fill-21"></path>


                    </g>
                </g>
            </g>
        </g>
    </g>

    <!--<animate xlink:href="#spot-play-01" attributeName="opacity"   from="0" to="1" dur="1s" repeatCount="indefinite"></animate>-->
    <animate xlink:href="#spot-play-01" attributeName="rotate"   from="0" to="1" dur="1s" begin="scroll"></animate>

    <animate xlink:href="#spot-play-02" attributeName="fill" from="red" to="blue" dur="1s" repeatCount="indefinite"></animate>
    <animate xlink:href="#spot-play-03" attributeName="fill" from="red" to="blue" dur="1s" repeatCount="indefinite"></animate>

    <!--<animate xlink:href="#play-main" attributeName="fill" from="red" to="blue" dur="1s" repeatCount="indefinite"></animate>-->

</svg>
